<svg width="50" height="50" xmlns="http://www.w3.org/2000/svg">

 <g>
  <title>Layer 1</title>
  <g stroke="null" stroke-width="0">
   <path stroke="null" fill="#ffffff" d="m25.07123,0.10028c13.78887,0 24.96695,11.17808 24.96695,24.96695s-11.17808,24.96695 -24.96695,24.96695s-24.96695,-11.17808 -24.96695,-24.96695s11.17808,-24.96695 24.96695,-24.96695zm0,3.12087c-12.06526,0 -21.84608,9.78082 -21.84608,21.84608s9.78082,21.84608 21.84608,21.84608s21.84608,-9.78082 21.84608,-21.84608s-9.78082,-21.84608 -21.84608,-21.84608zm0,11.70122c0.8618,0 1.56043,0.69862 1.56043,1.56043l-0.00023,7.93643l7.84298,7.86576c0.60938,0.6094 0.60938,1.5974 0,2.20678s-1.5974,0.6094 -2.2068,0l-8.03204,-8.05342c-0.047,-0.047 -0.09036,-0.09625 -0.13012,-0.1474c-0.36264,-0.28464 -0.59465,-0.72708 -0.59465,-1.22372l0,-8.58443c0,-0.86181 0.69864,-1.56043 1.56043,-1.56043z"/>
  </g>
 </g>
</svg>